<?xml version="1.0" encoding="utf-8"?>
<!-- Generator: Adobe Illustrator 24.0.3, SVG Export Plug-In . SVG Version: 6.00 Build 0)  -->
<!DOCTYPE svg PUBLIC "-//W3C//DTD SVG 1.1//EN" "http://www.w3.org/Graphics/SVG/1.1/DTD/svg11.dtd" [
	<!ENTITY ns_extend "http://ns.adobe.com/Extensibility/1.0/">
	<!ENTITY ns_ai "http://ns.adobe.com/AdobeIllustrator/10.0/">
	<!ENTITY ns_graphs "http://ns.adobe.com/Graphs/1.0/">
	<!ENTITY ns_vars "http://ns.adobe.com/Variables/1.0/">
	<!ENTITY ns_imrep "http://ns.adobe.com/ImageReplacement/1.0/">
	<!ENTITY ns_sfw "http://ns.adobe.com/SaveForWeb/1.0/">
	<!ENTITY ns_custom "http://ns.adobe.com/GenericCustomNamespace/1.0/">
	<!ENTITY ns_adobe_xpath "http://ns.adobe.com/XPath/1.0/">
]>
<svg version="1.1" id="Layer_1" xmlns:x="&ns_extend;" xmlns:i="&ns_ai;" xmlns:graph="&ns_graphs;"
	 xmlns="http://www.w3.org/2000/svg" xmlns:xlink="http://www.w3.org/1999/xlink" x="0px" y="0px" viewBox="0 0 147.4 75"
	 style="enable-background:new 0 0 147.4 75;" xml:space="preserve">
<style type="text/css">
	.st0{fill:#E3DBDB;stroke:#000000;stroke-width:3;}
	.st1{opacity:0.5;stroke:#000000;stroke-width:3;enable-background:new    ;}
</style>
<metadata>
	<sfw  xmlns="&ns_sfw;">
		<slices></slices>
		<sliceSourceBounds  bottomLeftOrigin="true" height="75" width="147.4" x="80.6" y="139.5"></sliceSourceBounds>
	</sfw>
</metadata>
<g>
	<path class="st0" d="M41.1,54.5l72.8-15.8c0,0,12.4,20,26.8,8.6c14.4-11.4-5.7-22.7-5.7-22.7s20.2-11,0.3-20.9
		c-19.9-9.9-26.5,15.8-26.5,15.8L38.2,32c0,0-18.3-24.6-31.8-8.4s5,26.4,5,26.4S-3.4,63,15.5,71.6C34.4,80.3,40.1,56.9,41.1,54.5
		L41.1,54.5z"/>
	<path class="st1" d="M27.6,21.9c2,1.9,3.8,3.8,5.6,5.4c0.2,0,0.5-0.1,0.7-0.1C32.2,25.5,30.1,23.6,27.6,21.9L27.6,21.9z M136.6,4.4
		c0.3,0.5,0.6,1,0.9,1.4c2,6-6.4,11-9.5,14.3c1.1,2.2,3.9,3.7,6.1,5.6C136,24.7,153.2,13.6,136.6,4.4L136.6,4.4z M2.5,40.4
		c0.9,2.2,2.3,4.1,3.7,5.6C8.2,43.7,4.7,42.2,2.5,40.4z M136.7,25.8c0.4,0.5,0.8,1.1,1.1,1.7c6,7.7-4,17.2-11.9,16.7
		c-7.8-0.2-10.8-7.7-15.7-12.4c-24.3,5.3-50.3,10.8-74.5,16.1C33.2,52,32.3,57.3,29,61c-4.9,7.8-15.9,7-22.6,1.7
		c-0.1-0.1-0.2-0.2-0.4-0.2c0.7,3.1,3.2,6.4,9.4,9.2c18.9,8.6,24.5-14.7,25.5-17.1l74.5-16.1c0,0,10.7,20.3,25.1,8.9
		C152.4,38.1,141.3,29,136.7,25.8L136.7,25.8z"/>
</g>
</svg>
